<?xml version="1.0" encoding="UTF-8" standalone="no"?>
<!-- Created with Inkscape (http://www.inkscape.org/) -->
<svg id="svg1" xmlns:rdf="http://www.w3.org/1999/02/22-rdf-syntax-ns#" xmlns="http://www.w3.org/2000/svg" height="200" width="200" version="1.0" xmlns:cc="http://creativecommons.org/ns#" xmlns:xlink="http://www.w3.org/1999/xlink" xmlns:dc="http://purl.org/dc/elements/1.1/">
 <metadata id="metadata3">
  <rdf:RDF>
   <cc:Work rdf:about="">
    <dc:title/>
    <dc:description/>
    <dc:subject>
     <rdf:Bag>
      <rdf:li>weapon</rdf:li>
      <rdf:li/>
      <rdf:li>tool</rdf:li>
     </rdf:Bag>
    </dc:subject>
    <dc:publisher>
     <cc:Agent rdf:about="http://www.openclipart.org">
      <dc:title>Nicu Buculei</dc:title>
     </cc:Agent>
    </dc:publisher>
    <dc:creator>
     <cc:Agent>
      <dc:title>Nicu Buculei</dc:title>
     </cc:Agent>
    </dc:creator>
    <dc:rights>
     <cc:Agent>
      <dc:title>Nicu Buculei</dc:title>
     </cc:Agent>
    </dc:rights>
    <dc:date/>
    <dc:format>image/svg+xml</dc:format>
    <dc:type rdf:resource="http://purl.org/dc/dcmitype/StillImage"/>
    <cc:license rdf:resource="http://web.resource.org/cc/PublicDomain"/>
    <dc:language>en</dc:language>
   </cc:Work>
   <cc:License rdf:about="http://web.resource.org/cc/PublicDomain">
    <cc:permits rdf:resource="http://web.resource.org/cc/Reproduction"/>
    <cc:permits rdf:resource="http://web.resource.org/cc/Distribution"/>
    <cc:permits rdf:resource="http://web.resource.org/cc/DerivativeWorks"/>
   </cc:License>
  </rdf:RDF>
 </metadata>
 <defs id="defs3">
  <linearGradient id="linearGradient2199">
   <stop id="stop2200" stop-color="#0163ff" stop-opacity=".10112" offset="0"/>
   <stop id="stop2201" stop-color="#fff" stop-opacity="0" offset="1"/>
  </linearGradient>
  <linearGradient id="linearGradient2180">
   <stop id="stop2181" stop-color="#b0b0b0" offset="0"/>
   <stop id="stop2182" stop-color="#e8e8e9" offset="1"/>
  </linearGradient>
  <linearGradient id="linearGradient1462" y2="34.009" xlink:href="#linearGradient2180" gradientUnits="userSpaceOnUse" x2="571.42" gradientTransform="scale(.33201 3.012)" y1="103.76" x1="676.05"/>
  <linearGradient id="linearGradient1464" y2="822.55" xlink:href="#linearGradient2180" gradientUnits="userSpaceOnUse" x2="130.54" gradientTransform="scale(1.694 .59033)" y1="786.66" x1="130.54"/>
  <linearGradient id="linearGradient1466" y2="685.19" xlink:href="#linearGradient2180" gradientUnits="userSpaceOnUse" x2="177.24" gradientTransform="scale(1.4945 .66911)" y1="697.5" x1="151.1"/>
  <linearGradient id="linearGradient1468" y2="17.733" xlink:href="#linearGradient2180" gradientUnits="userSpaceOnUse" x2="692.38" gradientTransform="scale(.33201 3.012)" y1="107.83" x1="666.23"/>
  <linearGradient id="linearGradient1470" y2="155.44" xlink:href="#linearGradient2199" gradientUnits="userSpaceOnUse" x2="556.42" gradientTransform="scale(.46382 2.156)" y1="10.073" x1="423.39"/>
  <linearGradient id="linearGradient1472" y2="541.29" xlink:href="#linearGradient2180" gradientUnits="userSpaceOnUse" x2="193.43" gradientTransform="scale(1.5092 .66262)" y1="537.14" x1="145.82"/>
  <linearGradient id="linearGradient1474" y2="522.72" xlink:href="#linearGradient2180" gradientUnits="userSpaceOnUse" x2="106.52" gradientTransform="scale(1.5041 .66483)" y1="522" x1="143.8"/>
  <linearGradient id="linearGradient1476" y2="673.5" xlink:href="#linearGradient2180" gradientUnits="userSpaceOnUse" x2="118.72" gradientTransform="scale(1.4627 .68366)" y1="687.36" x1="147.87"/>
  <linearGradient id="linearGradient3126" y2="673.5" xlink:href="#linearGradient2180" gradientUnits="userSpaceOnUse" x2="118.72" gradientTransform="matrix(-0.655 .48298 .25894 .26689 99.287 -73.555)" y1="687.36" x1="147.87"/>
  <linearGradient id="linearGradient3129" y2="522.72" xlink:href="#linearGradient2180" gradientUnits="userSpaceOnUse" x2="106.52" gradientTransform="matrix(-.67355 .49666 .25181 .25954 99.287 -73.555)" y1="522" x1="143.8"/>
  <linearGradient id="linearGradient3132" y2="541.29" xlink:href="#linearGradient2180" gradientUnits="userSpaceOnUse" x2="193.43" gradientTransform="matrix(-.67580 .49832 .25097 .25867 99.287 -73.555)" y1="537.14" x1="145.82"/>
  <linearGradient id="linearGradient3136" y2="155.44" xlink:href="#linearGradient2199" gradientUnits="userSpaceOnUse" x2="556.42" gradientTransform="matrix(-.20770 .15315 .81659 .84166 99.287 -73.555)" y1="10.073" x1="423.39"/>
  <linearGradient id="linearGradient3139" y2="17.733" xlink:href="#linearGradient2180" gradientUnits="userSpaceOnUse" x2="692.38" gradientTransform="matrix(-.14867 .10963 1.1408 1.1758 99.287 -73.555)" y1="107.83" x1="666.23"/>
  <linearGradient id="linearGradient3142" y2="685.19" xlink:href="#linearGradient2180" gradientUnits="userSpaceOnUse" x2="177.24" gradientTransform="matrix(-.66924 .49348 .25343 .26121 99.287 -73.555)" y1="697.5" x1="151.1"/>
  <linearGradient id="linearGradient3154" y2="822.55" xlink:href="#linearGradient2180" gradientUnits="userSpaceOnUse" x2="130.54" gradientTransform="matrix(-.75855 .55933 .22359 .23046 99.287 -73.555)" y1="786.66" x1="130.54"/>
  <linearGradient id="linearGradient3158" y2="34.009" xlink:href="#linearGradient2180" gradientUnits="userSpaceOnUse" x2="571.42" gradientTransform="matrix(-.14867 .10963 1.1408 1.1758 99.287 -73.555)" y1="103.76" x1="676.05"/>
 </defs>
 <g id="g2841" fill-rule="evenodd" transform="matrix(.44779 .33019 -.37875 .39038 101.02 -73.555)">
  <path id="path913" d="m185.21 64.144 11.22 284.07 54.17-1.06 10.76-289.48-39.05-55.831-37.1 62.305z" stroke="#000" stroke-width=".78085pt"/>
  <path id="path1556" d="m186.82 62.143 11.789 283.65h25.845l-1.14-341.4-36.5 57.753z" fill="url(#linearGradient1462)"/>
  <path id="path2830" d="m194.13 463.61 6.9886 22.985 44.618-0.45867 5.5992-21.284-57.206-1.2432z" stroke="#000" stroke-width=".78085pt"/>
  <path id="path1553" d="m195.21 465.05 7.2547 18.91 41.261 0.52529 7.2546-18.91-55.77-0.52528z" fill="url(#linearGradient1464)"/>
  <path id="path2832" d="m197.7 347.22 1.487 27.032-1.6019 3-0.38473 4.3847 2.4976 1.9399 0.34619 7.1753-2.1153 3.2188 0.0962 4.2886 2.2691 2.0649 0.75973 7.584h-0.0312l-2.5986 2.6104 0.19237 4.5458 2.75 2-0.1875 6.7812-2.3101 3.476-0.0962 3.6802 2.75 2 0.625 6.3438-2.5962 2.7066-0.19237 4.7695 3.0386 1.7114 0.0937-0.0312 0.0312 1.0312 15.969 0.28125-15.062 5.875-2.4062 3.1875v3.9688l2.75 2 37.75-14.594 3.5938 0.0625 0.0625-1.625 2.6587-2.584-0.0962-4.3535-1.6729-2.2188-0.29585-8.2812 2.7934-2.5288-0.48092-4.0962-1.7114-2.1611-0.0386-6.9014 3.0649-2.8965 0.38474-4.1611-2.8872-2.5986 0.48092-6.399 2.4253-3.5386v-3.7764l-2.4062-2.5986 0.50973-7.5264 2.2403-3.2236v-3.9688l-1.8316-2.3125-0.19967-7.6875 2.7188-3.1562v-3.9688l-2.375-2.3438 0.28125-8.2812-51.041 0.0935z" stroke="#000" stroke-width=".95992pt"/>
  <path id="path1545" d="m198.84 346.6 3.6273 103.2 42.621 0.79384 3.6273-103.2-49.876-0.79384z" fill="#303030"/>
  <path id="path2206" d="m200.29 383.5 47.764-18.312 2.749-3.1847v-3.9809l-2.4054-2.3885-48.451 18.71-2.4054 3.1847v3.9809l2.749 1.9905z" stroke="#000" stroke-width=".78085pt" fill="#000090"/>
  <path id="path2208" d="m203.73 465.11 41.235-15.924 2.749-3.1847v-3.9809l-2.4054-2.3885-41.922 16.322-2.4054 3.1847v3.9809l2.749 1.9904z" stroke="#000" stroke-width=".78085pt" fill="#000090"/>
  <path id="path1550" d="m170.79 446.96 4.6578 26.044 94.915-0.7712 2.9094-23.857-102.48-1.4163z" stroke="#000" stroke-width=".78085pt"/>
  <path id="path2207" d="m202.35 448.79 42.953-16.72 2.749-3.1847v-3.9809l-2.4054-2.3886-43.64 17.118-2.4054 3.1847v3.9809l2.749 1.9904z" stroke="#000" stroke-width=".78085pt" fill="#000090"/>
  <path id="path2203" d="m201.49 433.26 45.015-17.516 2.749-3.1847v-3.9809l-2.4054-2.3885-45.702 17.914-2.4054 3.1847v3.9809l2.749 1.9904z" stroke="#000" stroke-width=".78085pt" fill="#000090"/>
  <path id="path2204" d="m201.32 417.34 45.702-17.914 2.749-3.1847v-3.9809l-2.4054-2.3885-46.389 18.312-2.4054 3.1847v3.9809l2.749 1.9904z" stroke="#000" stroke-width=".78085pt" fill="#000090"/>
  <path id="path2205" d="m200.63 400.22 46.733-17.914 2.749-3.1847v-3.9809l-2.4054-2.3886-47.42 18.312-2.4054 3.1847v3.9809l2.749 1.9904z" stroke="#000" stroke-width=".78085pt" fill="#000090"/>
  <path id="path2193" d="m272.52 449.03-3.6273 22.062-46.173 1.0374-1.7948-21.882 51.595-1.2169z" fill="url(#linearGradient1466)"/>
  <path id="path2184" d="m260.27 62.143-11.789 283.65h-25.845l1.1335-341.41 36.5 57.755z" fill="url(#linearGradient1468)"/>
  <path id="path2196" d="m222.6 4.208-36.5 57.781 11.789 283.65h24.031 1.8137 24.031l11.79-283.65-36.5-57.782-0.23 68.287-0.22-68.287z" fill="url(#linearGradient1470)"/>
  <path id="path1543" d="m158.28 346.13 1.5318 32.002 62.149-12.814 62.915 10.527 0.59434-31.065-63.055 2.0744-64.134-0.72472z" stroke="#000" stroke-width=".78085pt"/>
  <path id="path2189" d="m284.53 346.86-0.90684 27.315-60.989-9.9452-0.31602-17.098 62.212-0.27151z" fill="url(#linearGradient1472)"/>
  <path id="path2187" d="m160.07 347.65 0.90683 27.315 62.08-10.71-0.41547-17.13-62.571 0.52527z" fill="url(#linearGradient1474)"/>
  <path id="path2191" d="m172.77 448.5 3.6273 22.062 47.04 1.6193-1.9329-21.96-48.734-1.7215z" fill="url(#linearGradient1476)"/>
  <path id="path2195" d="m223 6.375-1.56 339.62h3.75l-1.57-339.31-0.62-0.315z"/>
 </g>
 <path id="path1342" d="m40.645 12.641 102.56 114.6-24.65 17.47-114.45-109.45-3.6661-34.691 40.211 12.072z" fill-rule="evenodd" stroke="#000" stroke-width=".42760pt"/>
 <path id="path1344" d="m39.166 12.392 102.15 114.63-11.57 8.53-128.8-133.65 38.216 10.492z" fill-rule="evenodd" fill="url(#linearGradient3158)"/>
 <path id="path1346" d="m187.95 171.53 5.5764 11.281-20.153 14.554-10.569-6.4599 25.146-19.374z" fill-rule="evenodd" stroke="#000" stroke-width=".42760pt"/>
 <path id="path1348" d="m188.01 172.45 3.9137 9.7776-18.277 13.829-10.411-4.9868 24.775-18.62z" fill-rule="evenodd" fill="url(#linearGradient3154)"/>
 <path id="path1350" d="m142.27 127.28 9.5724 11.044 1.8536 0.6422 1.833 1.5847-0.38363 1.582 2.5627 2.9154 2.1663 0.55809 1.5812 1.7059-0.23399 1.5554 2.5323 3.2115 0.014-0.0103 2.1523 0.161 1.6356 1.8381-0.47393 1.6888 2.6524 2.5854 2.351 0.59422 1.437 1.4049-0.47392 1.6888 2.1228 2.6829 2.1877 0.19936 1.8926 1.7984-0.71243 1.6714-0.0538 0.0188 0.37662 0.41288-7.0442 5.3826 8.9701-2.68 2.2848 0.44982 1.5032 1.5493-0.47392 1.6888-22.432 6.7676-1.5856 1.211-0.64346-0.61373-2.1692-0.13088-1.6058-1.7313-0.0912-1.4185-3.0041-3.3305-2.2087-0.0648-1.3361-1.7579-0.0522-1.4088-2.5966-2.7069-2.4695-0.11873-1.7483-1.4974 0.30862-1.9678-2.639-2.3392-2.4263-0.58056-1.4303-1.4742 0.0933-1.809-3.0789-2.7699-2.2241-0.51872-1.5032-1.5493-0.0557-1.5075-2.8223-3.067-2.4129-0.33443-1.5032-1.5493 0.17581-1.6992-3.2625-3.14 22.891-16.817z" fill-rule="evenodd" stroke="#000" stroke-width=".52566pt"/>
 <path id="path1352" d="m141.53 127.41 37.463 41.485-18.785 14.383-40.712-39.09 22.033-16.779z" fill-rule="evenodd" fill="#4f1409"/>
 <path id="path1354" d="m154.85 142.29-28.324 8.6226-2.4372-0.33556-1.5078-1.5541 0.17245-1.7267 28.783-8.6941 2.2833 0.44902 1.5078 1.5541-0.4771 1.6848z" fill-rule="evenodd" stroke="#000" stroke-width=".42760pt" fill="#bb0d00"/>
 <path id="path1356" d="m184.22 175.29-24.496 7.3992-2.4372-0.33555-1.5078-1.5541 0.17244-1.7267 24.954-7.4707 2.2833 0.44902 1.5078 1.5541-0.47711 1.6847z" fill-rule="evenodd" stroke="#000" stroke-width=".42760pt" fill="#bb0d00"/>
 <path id="path1358" d="m192.1 157.33 7.7786 11.705-42.795 31.039-10.339-8.3526 45.355-34.392z" fill-rule="evenodd" stroke="#000" stroke-width=".42760pt"/>
 <path id="path1360" d="m178.66 168.46-25.567 7.6557-2.4372-0.33556-1.5078-1.5541 0.17244-1.7267 26.025-7.7272 2.2833 0.44902 1.5078 1.5541-0.47711 1.6847z" fill-rule="evenodd" stroke="#000" stroke-width=".42760pt" fill="#bb0d00"/>
 <path id="path1362" d="m173.16 162.12-26.792 8.0257-2.4372-0.33555-1.5078-1.5541 0.17245-1.7267 27.25-8.0972 2.2833 0.44902 1.5078 1.5541-0.4771 1.6847z" fill-rule="evenodd" stroke="#000" stroke-width=".42760pt" fill="#bb0d00"/>
 <path id="path1364" d="m167.21 155.84-27.25 8.0972-2.4372-0.33556-1.5078-1.5541 0.17245-1.7267 27.709-8.1687 2.2833 0.44903 1.5078 1.5541-0.4771 1.6847z" fill-rule="evenodd" stroke="#000" stroke-width=".42760pt" fill="#bb0d00"/>
 <path id="path1366" d="m161.03 148.93-27.712 8.4376-2.4372-0.33556-1.5078-1.5541 0.17244-1.7267 28.17-8.5091 2.2833 0.44902 1.5078 1.5541-0.4771 1.6847z" fill-rule="evenodd" stroke="#000" stroke-width=".42760pt" fill="#bb0d00"/>
 <path id="path1368" d="m147.33 191.72 9.9803 7.4148 21.069-14.841-7.4843-9.1351-23.565 16.561z" fill-rule="evenodd" fill="url(#linearGradient3142)"/>
 <path id="path1370" d="m6.2742 36.646 112.72 106.84 11.57-8.54-129.82-132.9 5.5342 34.596z" fill-rule="evenodd" fill="url(#linearGradient3139)"/>
 <path id="path1372" d="m1.2032 1.5879 38.229 10.505 102.16 114.63l-10.761 7.9349-0.81215 0.59886-10.761 7.9349-112.72-106.84-5.5399-34.612 25.965 26.583-25.762-26.733z" fill-rule="evenodd" fill="url(#linearGradient3136)"/>
 <path id="path1374" d="m159.51 113.83 11.435 12.999-32.683 15.519-24.186 24.883-12.032-11.931 29.022-20.011 28.444-21.46z" fill-rule="evenodd" stroke="#000" stroke-width=".42760pt"/>
 <path id="path1376" d="m103.25 155.8 10.752 10.364 23.544-24.021-6.3344-6.7791-27.961 20.436z" fill-rule="evenodd" fill="url(#linearGradient3132)"/>
 <path id="path1378" d="m159.28 115.01 9.9395 10.963-31.855 16.318-6.3021-6.8245 28.218-20.456z" fill-rule="evenodd" fill="url(#linearGradient3129)"/>
 <path id="path1380" d="m191.8 158.58 6.7317 9.8103-20.451 16.164-7.4518-9.2109 21.171-16.764z" fill-rule="evenodd" fill="url(#linearGradient3126)"/>
 <path id="path1382" d="m1.8432 2.5671 129.34 132.06-1.68 1.24-127.82-132.97 0.1632-0.3329z" fill-rule="evenodd"/>
</svg>
